<svg width="48" height="42" viewBox="0 0 48 42" fill="none" xmlns="http://www.w3.org/2000/svg">
<path d="M4.12807 22.6669C3.7775 22.0598 3.60223 21.756 3.53363 21.4333C3.47292 21.1477 3.47292 20.8527 3.53363 20.5671C3.60223 20.2444 3.7775 19.9406 4.12807 19.3335L12.6202 4.62467C12.9708 4.01751 13.146 3.71392 13.3913 3.49313C13.6082 3.29778 13.8638 3.1502 14.1415 3.05999C14.4553 2.95801 14.8059 2.95801 15.507 2.95801H32.4912C33.1925 2.95801 33.5429 2.95801 33.8569 3.05999C34.1344 3.1502 34.39 3.29778 34.6071 3.49313C34.8523 3.71392 35.0275 4.01751 35.3781 4.62467L43.8702 19.3335C44.2208 19.9406 44.396 20.2444 44.4646 20.5671C44.5254 20.8527 44.5254 21.1477 44.4646 21.4333C44.396 21.756 44.2208 22.0598 43.8702 22.6669L35.3781 37.3758C35.0275 37.9829 34.8523 38.2865 34.6071 38.5073C34.39 38.7027 34.1344 38.8502 33.8569 38.9404C33.5429 39.0425 33.1925 39.0425 32.4912 39.0425H15.507C14.8059 39.0425 14.4553 39.0425 14.1415 38.9404C13.8638 38.8502 13.6082 38.7027 13.3913 38.5073C13.146 38.2865 12.9708 37.9829 12.6202 37.3758L4.12807 22.6669Z" stroke="#FFE500" stroke-width="5" stroke-linejoin="round"/>
</svg>
