<svg width="1440" height="1616" viewBox="0 0 1440 1616" fill="none" xmlns="http://www.w3.org/2000/svg">
<path d="M103.636 310.759L51.0723 280.173C18.5134 261.227 -22.162 263.3 -52.6268 285.456C-79.5471 305.034 -94.2626 337.27 -91.4199 370.435L-59.4662 743.227C-58.8246 750.714 -57.2568 758.091 -54.799 765.192C-51.294 775.317 -49.6074 785.983 -49.8172 796.696L-58.5 1240V1434.56C-58.5 1518.45 8.01705 1587.22 91.8581 1590.03C101.243 1590.34 110.628 1589.39 119.76 1587.2L316.94 1539.93C322.306 1538.65 327.761 1537.77 333.259 1537.31L438.5 1528.5H623L766.45 1515.12C774.459 1514.38 782.526 1514.52 790.503 1515.55L873.379 1526.23C885.049 1527.73 896.886 1527.34 908.43 1525.06L1010 1505L1119.96 1498.05C1130.92 1497.35 1141.93 1498.32 1152.6 1500.92L1258.4 1526.65C1263.46 1527.88 1268.57 1528.76 1273.77 1528.98C1296.35 1529.91 1363.53 1529.58 1414.5 1497C1461.24 1467.13 1530.54 1365.28 1508.74 1314.27L1479.25 1245.27C1477.78 1241.82 1477.27 1238.04 1477.77 1234.32L1535 814V60.4154C1535 25.2472 1488.92 12.0858 1470.35 41.9487C1437.8 94.271 1383.75 129.489 1322.74 138.124L953.258 190.42C938.94 192.447 925.268 197.699 913.276 205.779L899.507 215.056C829.559 262.183 744.098 280.438 661 266L545.4 256.414C486.363 251.518 426.938 258.147 370.431 275.932L330.5 288.5L183.109 322.723C156.061 329.003 127.636 324.724 103.636 310.759Z" fill="white"/>
<path d="M-70.9976 1239.76C-70.9992 1239.84 -71 1239.92 -71 1240V1434.56C-71 1525.19 0.862152 1599.49 91.4404 1602.52C101.946 1602.87 112.452 1601.81 122.674 1599.36L319.854 1552.09L316.94 1539.93L319.855 1552.09C324.604 1550.95 329.434 1550.17 334.302 1549.77L439.022 1541H623C623.387 1541 623.775 1540.98 624.161 1540.95L767.61 1527.57C774.701 1526.91 781.843 1527.03 788.905 1527.94L871.781 1538.63C884.79 1540.3 897.984 1539.86 910.852 1537.32L1011.61 1517.42L1120.75 1510.52C1130.46 1509.91 1140.2 1510.76 1149.65 1513.06L1255.44 1538.8C1261.04 1540.16 1267 1541.2 1273.25 1541.46C1296.15 1542.42 1366.77 1542.34 1421.23 1507.53C1446.86 1491.15 1477.11 1456.41 1498.16 1419.79C1508.77 1401.33 1517.41 1381.76 1521.93 1363.08C1526.41 1344.6 1527.18 1325.61 1520.23 1309.36L1490.75 1240.36C1490.16 1238.99 1489.96 1237.48 1490.16 1236L1547.39 815.686C1547.46 815.127 1547.5 814.564 1547.5 814V60.4154C1547.5 12.6744 1484.95 -5.19227 1459.73 35.3468C1429.14 84.5274 1378.34 117.631 1320.99 125.747L951.506 178.044C935.314 180.336 919.854 186.274 906.291 195.412L892.522 204.689C825.251 250.014 743.058 267.57 663.14 253.685C662.773 253.621 662.404 253.574 662.033 253.543L546.433 243.956C485.782 238.927 424.731 245.737 366.678 264.009L327.205 276.432L180.282 310.547C156.336 316.107 131.17 312.318 109.923 299.955L57.3589 269.369C20.5179 247.932 -25.5073 250.276 -59.9789 275.347C-90.4399 297.5 -107.091 333.975 -103.874 371.502L-71.9206 744.295C-71.1906 752.811 -69.4073 761.203 -66.6113 769.281C-63.5884 778.013 -62.1339 787.212 -62.3148 796.452L-70.9976 1239.76Z" stroke="#EBEBEB" stroke-opacity="0.65" stroke-width="25" stroke-linejoin="round"/>
</svg>
