<svg width="1440" height="1324" viewBox="0 0 1440 1324" fill="none" xmlns="http://www.w3.org/2000/svg">
<path d="M130.017 80.8785L76.4066 50.133C44.1777 31.6498 4.12619 33.6782 -26.0704 55.323C-53.3024 74.8428 -68.2201 107.278 -65.3172 140.658L-33.4673 506.886C-32.825 514.272 -31.257 521.549 -28.8002 528.544C-25.2951 538.524 -23.6076 549.051 -23.8178 559.627L-32.5 996.516V1104.1C-32.5 1177.86 7.68011 1245.76 72.3318 1281.25C100.831 1296.9 133.992 1301.82 165.806 1295.12L332.392 1260.04C339.777 1258.48 347.304 1257.7 354.852 1257.7H447L637.817 1279.58C645.253 1280.43 652.756 1280.51 660.209 1279.83L804.5 1266.57L908 1257.7H1023.04C1031.65 1257.7 1040.23 1256.68 1048.6 1254.66L1177 1223.7L1252.72 1194.2C1294.76 1177.83 1341.98 1195.12 1386.09 1204.62C1404.11 1208.5 1424.45 1207.07 1445 1194.13C1460.84 1184.15 1538.18 1077.65 1530.73 1060.47L1503.58 997.861C1503.2 996.981 1503.07 996.013 1503.2 995.063L1559.15 590.015C1560.38 581.141 1560.51 572.148 1559.53 563.243L1513.32 140.929C1505.82 72.3597 1435.6 29.3243 1371.1 53.7579C1287.01 85.6068 1197.07 99.0311 1107.35 93.1233L1011.5 86.8116L816.5 58.7221L687 36.5462L570.152 26.996C511.924 22.2369 453.324 28.6866 397.525 45.9959L356.5 58.7221L208.559 92.5777C181.839 98.6926 153.795 94.5154 130.017 80.8785Z" fill="white"/>
<path d="M1179.93 1235.85C1180.28 1235.76 1180.62 1235.66 1180.96 1235.55C1181.15 1235.49 1181.35 1235.42 1181.54 1235.34L1257.25 1205.85C1275.36 1198.8 1295.16 1198.75 1316.73 1202.06C1330.81 1204.22 1344.43 1207.55 1358.47 1210.98C1366.6 1212.97 1374.87 1214.99 1383.45 1216.84C1404.21 1221.31 1427.97 1219.63 1451.66 1204.7C1455.19 1202.48 1459.12 1198.59 1462.7 1194.72C1466.59 1190.53 1471.08 1185.24 1475.87 1179.28C1485.46 1167.33 1496.58 1152.28 1506.94 1137.02C1517.27 1121.81 1527.04 1106.1 1533.82 1092.91C1537.19 1086.35 1540.02 1080.02 1541.76 1074.47C1542.63 1071.69 1543.34 1068.75 1543.61 1065.85C1543.87 1063.11 1543.84 1059.3 1542.2 1055.49L1515.86 994.757L1571.54 591.726C1572.9 581.833 1573.04 571.81 1571.96 561.883L1525.75 139.569C1517.35 62.8745 1438.82 14.7394 1366.67 42.0684C1284.26 73.2834 1196.11 86.4405 1108.17 80.6503L1012.8 74.3704L818.446 46.3735L689.11 24.2256C688.748 24.1637 688.384 24.1177 688.018 24.0878L571.17 14.5376C511.35 9.64828 451.147 16.2744 393.822 34.0571L353.249 46.6429L205.771 80.3927C182.114 85.8063 157.287 82.1082 136.235 70.0351L82.6252 39.2897C46.1503 18.3713 0.822136 20.667 -33.3527 45.1634C-64.1725 67.2549 -81.0555 103.964 -77.7701 141.741L-45.9203 507.969C-45.1873 516.399 -43.3978 524.703 -40.594 532.686C-37.584 541.256 -36.1349 550.297 -36.3153 559.378L-44.9975 996.268C-44.9992 996.35 -45 996.433 -45 996.516V1104.1C-45 1182.42 -2.3346 1254.52 66.3161 1292.21C97.4343 1309.29 133.644 1314.66 168.381 1307.35L334.967 1272.27C341.506 1270.89 348.17 1270.2 354.852 1270.2H446.286L636.393 1292C644.681 1292.95 653.045 1293.04 661.353 1292.28L805.567 1279.02L805.644 1279.02L908.535 1270.2H1023.04C1032.64 1270.2 1042.2 1269.06 1051.53 1266.81L1179.93 1235.85Z" stroke="#EBEBEB" stroke-opacity="0.65" stroke-width="25" stroke-linejoin="round"/>
</svg>
