<svg width="100" height="100" viewBox="0 0 100 100" fill="none" xmlns="http://www.w3.org/2000/svg">
<g clip-path="url(#clip0_122_113)">
<path d="M87.2751 46.6675C87.1076 37.925 83.8775 29.4575 78.0475 22.795C70.9475 14.675 60.7025 10.0175 49.9425 10.0175C39.165 10.0175 28.9225 14.665 21.8375 22.7675C15.95 29.5 12.7625 38.07 12.655 46.895C5.35005 48.145 -0.0549512 54.2475 -0.154951 61.6925C-0.184951 61.7975 -0.199951 61.9075 -0.199951 62.0175C-0.199951 70.555 6.68005 77.5 15.1375 77.5H26.485C31.625 85.075 40.3025 90 49.9425 90C64.06 90 76.1325 79.4475 78.015 65.4525L79.9101 51.37C81.0751 42.725 78.4476 34 72.7051 27.435C66.9626 20.87 58.6676 17.1025 49.9451 17.1025C41.2226 17.1025 32.925 20.8675 27.185 27.435C21.445 34.0025 18.81 42.725 19.975 51.37L21.87 65.4525C22.33 68.8775 23.41 72.0925 24.97 75H19.7975C18.5825 72.2675 17.7375 69.27 17.3075 66.0675L15.4125 51.99C15.2525 50.805 15.165 49.62 15.1275 48.4375C15.22 48.2425 15.2825 48.0325 15.26 47.8C15.2475 47.6525 15.195 47.5175 15.135 47.3925C15.125 38.995 18.12 30.8125 23.715 24.415C30.3275 16.855 39.885 12.52 49.94 12.52C59.9825 12.52 69.54 16.865 76.165 24.4425C81.715 30.7875 84.7376 38.885 84.7776 47.2175C84.7176 47.35 84.6751 47.5 84.6626 47.6575C84.6426 47.8775 84.6851 48.09 84.7701 48.2775C84.7376 49.535 84.6375 50.795 84.47 52.055L82.5751 66.2075C82.0626 70.0225 81.0575 73.5475 79.885 75.6375C79.67 76.025 79.6726 76.4975 79.8976 76.8825C80.1226 77.265 80.5326 77.5 80.9776 77.5H84.8651C93.2101 77.5 100 70.5375 100 61.8375C100 54.185 94.6151 47.875 87.2751 46.6675ZM24.345 65.1175L22.45 51.0375C21.385 43.1075 23.7925 35.105 29.0625 29.0825C34.3275 23.06 41.9375 19.605 49.9425 19.605C57.9475 19.605 65.555 23.06 70.8225 29.0825C76.0901 35.1075 78.4976 43.1075 77.4351 51.0375L75.54 65.12C73.8175 77.8775 62.815 87.5 49.9425 87.5C41.7625 87.5 34.3475 83.6075 29.58 77.5H37.5C37.545 77.5 37.58 77.48 37.6225 77.475C38.195 80.335 40.7225 82.5 43.75 82.5H53.75C57.1975 82.5 60 79.695 60 76.25C60 72.805 57.1975 70 53.75 70H43.75C40.7225 70 38.195 72.165 37.6225 75.025C37.58 75.02 37.545 75 37.5 75H27.8675C26.0725 72.0475 24.83 68.715 24.345 65.1175ZM40 76.25C40 74.1825 41.6825 72.5 43.75 72.5H53.75C55.8175 72.5 57.5 74.1825 57.5 76.25C57.5 78.3175 55.8175 80 53.75 80H43.75C41.6825 80 40 78.3175 40 76.25ZM17.09 75H15.1375C8.12755 75 2.41005 69.2875 2.30255 62.2225C2.32755 62.12 2.34255 62.015 2.34255 61.91C2.34255 55.73 6.71755 50.62 12.705 49.42C12.76 50.3875 12.8075 51.355 12.9375 52.325L14.8325 66.4025C15.24 69.45 16.01 72.325 17.09 75ZM84.8626 75H82.9451C83.8701 72.7075 84.6276 69.7 85.0501 66.54L86.9451 52.3875C87.0901 51.325 87.1876 50.26 87.2376 49.2C93.1776 50.3625 97.5001 55.57 97.5001 61.98C97.5001 69.16 91.8301 75 84.8626 75Z" fill="black"/>
</g>
<defs>
<clipPath id="clip0_122_113">
<rect width="100" height="100" fill="white"/>
</clipPath>
</defs>
</svg>
