<svg width="100" height="85" viewBox="0 0 100 85" fill="none" xmlns="http://www.w3.org/2000/svg">
<path d="M95.8527 1.61694H1.57666V74.7144H95.8527V1.61694Z" fill="#FF7C24"/>
<path d="M97.4285 76.3313H0V0H72.5945V3.23262H3.1524V73.0975H94.2749V3.23381H85.4396V0.00118912H97.4285V76.3313ZM81.4553 3.23381H76.7296V0.00118912H81.4553V3.23381Z" fill="black"/>
<path d="M95.8527 16.7853H1.57666V74.7144H95.8527V16.7853Z" fill="#39B6CC"/>
<path d="M97.4285 76.3313H0V15.1697H97.4285V76.3313ZM3.1524 73.0975H94.2749V18.4023H3.1524V73.0975Z" fill="black"/>
<path d="M12.5969 6.37122H7.56372V11.3552H12.5969V6.37122Z" fill="#F2F2F2"/>
<path d="M21.6132 6.30341H16.5801V11.2933H21.6132V6.30341Z" fill="#F2F2F2"/>
<path d="M30.4126 6.30341H25.3794V11.2933H30.4126V6.30341Z" fill="#F2F2F2"/>
<path d="M65.0019 66.3693C54.555 66.3693 46.0562 57.653 46.0562 46.9403C46.0562 36.2299 54.555 27.516 65.0019 27.516C75.4464 27.516 83.9418 36.2299 83.9418 46.9403C83.9418 57.653 75.4464 66.3693 65.0019 66.3693ZM65.0019 30.751C56.293 30.751 49.2085 38.0134 49.2085 46.9415C49.2085 55.8719 56.293 63.1367 65.0019 63.1367C73.7072 63.1367 80.7894 55.8719 80.7894 46.9415C80.7894 38.0134 73.7072 30.751 65.0019 30.751Z" fill="#F2F2F2"/>
<path d="M65.4531 57.8148C59.9013 57.8148 55.3833 53.1806 55.3833 47.4839C55.3833 41.7909 59.9013 37.1591 65.4531 37.1591C71.0084 37.1591 75.5276 41.7909 75.5276 47.4839C75.5276 53.1806 71.0084 57.8148 65.4531 57.8148ZM65.4531 40.3917C61.6405 40.3917 58.5369 43.5731 58.5369 47.4839C58.5369 51.3983 61.6405 54.5821 65.4531 54.5821C69.2703 54.5821 72.3752 51.3983 72.3752 47.4839C72.3752 43.5731 69.2703 40.3917 65.4531 40.3917Z" fill="#F2F2F2"/>
<path fill-rule="evenodd" clip-rule="evenodd" d="M82.5111 81.2022C80.2393 78.0553 77.3665 79.7781 74.17 77.1511C73.7407 76.8025 73.2766 76.3729 72.7812 75.8982C70.2031 73.3973 69.8562 73.8613 65.8278 71.9386C64.1211 71.126 61.7554 69.8899 64.5562 68.2765C66.727 67.0296 68.9303 66.3657 72.6571 68.8488C74.4543 70.0445 71.8205 65.897 71.6302 65.5591L63.5735 51.271C60.6276 46.362 66.7769 42.7737 69.5998 47.6601L75.0843 57.1533C83.1863 51.0486 88.0141 53.5138 91.1944 57.8624C96.3389 64.9011 93.9894 66.6227 94.6705 68.317C95.362 70.0398 96.8575 71.6364 97.6047 73.3699C97.8716 73.9874 98.1512 74.5597 98.425 75.0749L83.9904 83.3831C83.5924 82.7537 83.1074 82.0327 82.5111 81.2022Z" fill="#F2F2F2"/>
<path d="M83.9905 85C83.4719 85 82.9649 84.7371 82.6655 84.26C82.2652 83.6258 81.786 82.9203 81.2419 82.1624C80.3833 80.9738 79.4586 80.7858 78.0582 80.5015C76.6786 80.2219 74.9603 79.8733 73.1828 78.4134C72.6827 78.0077 72.1537 77.5116 71.7046 77.0809C70.1012 75.5258 69.6162 75.3259 68.0081 74.6609C67.2899 74.3634 66.3965 73.9946 65.162 73.4045C63.8892 72.7989 61.7578 71.7852 61.6859 69.8601C61.643 68.7013 62.3472 67.6935 63.7825 66.8666C64.9195 66.2135 66.3176 65.5472 68.0696 65.5472C68.681 65.5472 69.3041 65.6293 69.9434 65.797L62.2184 52.098C61.0338 50.111 60.8923 47.9849 61.8321 46.2609C62.6872 44.6916 64.322 43.7172 66.0983 43.7172C68.0406 43.7172 69.8099 44.8534 70.9563 46.8368L75.5787 54.838C78.5315 52.8773 81.2929 51.8838 83.806 51.8838C87.1139 51.8838 90.0238 53.5697 92.4534 56.8927C96.2311 62.0599 96.3483 64.6953 96.1465 66.9511C96.1198 67.2569 96.0873 67.6031 96.1267 67.7019C96.4191 68.43 96.9261 69.1915 97.4633 69.9969C98.033 70.8524 98.6236 71.7376 99.0448 72.7168C99.278 73.2546 99.5355 73.7888 99.8082 74.3027C100.22 75.0797 99.9474 76.0529 99.1944 76.4848L84.7609 84.793C84.5173 84.9334 84.2516 85 83.9905 85ZM65.1806 69.7745C65.4451 69.9446 65.8558 70.1707 66.4905 70.4729C67.653 71.0273 68.5035 71.3795 69.1881 71.6626C71.0224 72.4217 71.9158 72.8369 73.8615 74.7251C74.2583 75.1035 74.7283 75.5449 75.1471 75.8851C76.3294 76.856 77.4131 77.0761 78.6696 77.3307C80.3195 77.6651 82.191 78.0458 83.777 80.2409C84.0242 80.586 84.2597 80.9203 84.4813 81.2451L96.3379 74.4217C96.2776 74.2908 96.2184 74.1588 96.1615 74.0267C95.8552 73.3164 95.3726 72.5895 94.8597 71.8209C94.2552 70.9131 93.6287 69.9743 93.211 68.9321C92.8757 68.0981 92.9442 67.3295 93.0045 66.6525C93.1205 65.3711 93.2946 63.4341 89.9298 58.8321C88.1013 56.3312 86.0975 55.1164 83.8049 55.1164C81.5772 55.1164 78.9574 56.2396 76.0161 58.4561C75.6576 58.7262 75.2039 58.8285 74.7689 58.7381C74.3326 58.6465 73.9544 58.3704 73.7281 57.9778L68.2425 48.4846C67.6704 47.4947 66.9093 46.9498 66.0972 46.9498C65.4625 46.9498 64.8824 47.2901 64.583 47.8385C64.2083 48.5262 64.3254 49.4447 64.9137 50.4239C64.9207 50.437 64.9299 50.4489 64.9369 50.462L72.9925 64.75C73.0111 64.781 73.0494 64.8428 73.0993 64.9249C74.7213 67.6079 75.1982 68.7453 74.6331 69.7864C74.3338 70.3372 73.7594 70.6799 73.1352 70.6799C72.5829 70.6799 72.1305 70.4253 71.7975 70.204C70.3587 69.245 69.1382 68.7786 68.0684 68.7786C67.24 68.7786 66.4452 69.0416 65.3244 69.6864C65.2734 69.7173 65.2235 69.7471 65.1806 69.7745Z" fill="black"/>
<path fill-rule="evenodd" clip-rule="evenodd" d="M14.5657 40.8355C12.7476 40.5035 11.3738 39.4791 10.5605 37.6885L10.2971 37.1103L12.4343 36.0514L12.707 36.6237C13.3822 38.0026 14.4984 38.5916 15.9823 38.5916C17.0312 38.5916 18.5314 38.2311 18.5314 36.8973C18.5314 36.6689 18.5047 36.4452 18.4049 36.2453C17.9965 35.4101 16.4847 35.209 15.7039 35.1353C13.2372 34.9068 11.1 33.905 11.1 31.0615C11.1 30.375 11.2508 29.6992 11.5862 29.0995C12.2278 27.955 13.3497 27.372 14.5645 27.1661V25.0721H16.8978V27.1888C18.55 27.51 19.8819 28.4999 20.6802 30.0668L20.9772 30.6498L18.8505 31.7373L18.572 31.1543C18.0023 29.9812 16.9488 29.4553 15.6876 29.4553C14.6098 29.4553 13.4611 29.7753 13.4611 31.0627C13.4611 31.303 13.5006 31.5433 13.6178 31.7551C14.0146 32.4523 15.2363 32.6367 15.9336 32.6938C18.4177 32.9175 20.8983 33.8955 20.8983 36.8652C20.8983 37.6552 20.7034 38.4095 20.2683 39.0687C19.4979 40.2239 18.2089 40.7617 16.8989 40.9223V43.2281H14.5657V40.8355Z" fill="#F2F2F2"/>
<path d="M16.268 42.5798V40.3251C18.701 40.2276 20.2685 38.9402 20.2685 36.8641C20.2685 34.8319 18.8948 33.6136 15.8839 33.3388C13.7897 33.1615 12.8359 32.4119 12.8359 31.0615C12.8359 29.7802 13.7131 28.8069 15.6878 28.8069C17.3458 28.8069 18.5212 29.6017 19.1361 30.8664L20.1235 30.3643C19.3867 28.9223 18.093 27.9265 16.268 27.7492V25.7183H15.1912V27.7326C12.9079 27.9158 11.7256 29.2769 11.7256 31.0627C11.7256 33.0949 12.9821 34.2335 15.7609 34.4905C18.2091 34.7189 19.1651 35.5315 19.1651 36.8986C19.1651 38.3406 17.8819 39.2329 15.9849 39.2329C14.2108 39.2329 12.9102 38.4715 12.1456 36.9093L11.1304 37.4126C11.9124 39.1235 13.2501 40.0789 15.1924 40.2728V42.5786L16.268 42.5798Z" fill="#F2F2F2"/>
<path d="M17.4442 47.7303H13.0085V65.6745H17.4442V47.7303Z" fill="#FF7C24"/>
<path d="M27.6105 44.2169H23.176V65.4567H27.6105V44.2169Z" fill="#FF7C24"/>
<path d="M37.8438 36.0455H33.4082V65.2045H37.8438V36.0455Z" fill="#FF7C24"/>
</svg>
