<svg width="100" height="100" viewBox="0 0 100 100" fill="none" xmlns="http://www.w3.org/2000/svg">
<g clip-path="url(#clip0_122_20)">
<path d="M25.4826 75.5617C24.6092 76.4351 23.9032 78.1418 23.9032 79.3749V95.4368H33.2277V70.0504C33.2277 68.8172 32.5217 68.5224 31.6483 69.3957L25.4826 75.5617Z" fill="#06D9D9"/>
<path d="M66.4395 60.3441C65.5683 61.2175 64.8601 62.9245 64.8601 64.1598V95.4393H74.1846V54.824C74.1846 53.5909 73.4786 53.2982 72.6052 54.1716L66.4395 60.3441Z" fill="#06D9D9"/>
<path d="M80.0889 46.6746C79.2155 47.5458 78.5073 49.2525 78.5073 50.4856V95.4368H87.1772V41.8316C87.1772 40.5985 86.469 40.3036 85.5956 41.177L80.0889 46.6746Z" fill="#06D9D9"/>
<path d="M53.0626 73.7187C53.0626 73.7187 52.6471 74.1365 52.1334 74.6504C51.622 75.1643 51.2064 76.5827 51.2064 77.8158V95.4371H60.531V68.4913C60.531 67.2582 59.8227 66.9633 58.9493 67.8367L53.0626 73.7187Z" fill="#06D9D9"/>
<path d="M39.1364 68.9805C38.263 68.1093 37.5548 68.402 37.5548 69.6351V95.4371H46.8793V78.9393C46.8793 77.7062 46.2091 76.0374 45.3805 75.2132L43.8816 73.7209L39.1364 68.9805Z" fill="#06D9D9"/>
<path d="M13.7475 87.3033L10.7363 90.3193C9.86508 91.1927 9.15906 92.6918 9.15906 93.6702V95.4395H19.567V83.7089C19.567 82.4758 18.8609 82.1831 17.9875 83.0565L13.7475 87.3033Z" fill="#06D9D9"/>
<path d="M98.4206 41.4227C99.2918 42.2961 100 42.0012 100 40.7681V8.84742C100 6.56198 97.8108 4.56042 95.5388 4.56042H63.8034C62.5703 4.56042 62.2754 5.26865 63.1488 6.14204L74.4369 17.439L69.8328 22.0231L48.4786 43.3973L37.1839 32.105C36.3105 31.2316 34.8984 31.2338 34.025 32.105L2.61611 63.5365C-0.87334 67.0281 -0.871141 72.6868 2.61831 76.176L2.83735 76.3972C6.3268 79.8866 11.9854 79.8866 15.4724 76.395L35.6025 56.2539L46.8973 67.5374C47.7707 68.4086 49.1849 68.4086 50.0583 67.5374L87.2913 30.2978L98.4206 41.4227Z" fill="#06D9D9"/>
</g>
<defs>
<clipPath id="clip0_122_20">
<rect width="100" height="100" fill="white"/>
</clipPath>
</defs>
</svg>
