<svg width="100" height="100" viewBox="0 0 100 100" fill="none" xmlns="http://www.w3.org/2000/svg">
<g clip-path="url(#clip0_122_30)">
<path d="M75.7764 7.81826H76.7138L74.214 10.3181L71.7141 7.81826L74.214 5.31842V6.25586C74.214 7.1933 74.9952 7.81826 75.7764 7.81826Z" fill="#FF5400"/>
<path d="M77.3388 77.5014V96.8752H66.402V89.0632V87.5008H63.2771V89.0632V96.8752H35.1539V87.5008H32.0291V96.8752H21.0923V77.5014C28.7481 71.8768 38.2787 68.752 47.6531 68.752H50.7779C60.1523 68.752 69.683 71.8768 77.3388 77.5014Z" fill="#FF9900"/>
<path d="M49.2156 9.38068C55.1527 9.38068 60.4649 11.568 64.6834 15.1616L60.1524 19.6925C57.1838 17.1927 53.4341 15.6303 49.2156 15.6303C39.6849 15.6303 32.0292 23.2861 32.0292 32.8167C32.0292 42.3474 39.6849 50.0031 49.2156 50.0031C58.7462 50.0031 66.402 42.3474 66.402 32.8167C66.402 28.5982 64.8396 24.8485 62.496 21.8799L66.8707 17.5052C70.4642 21.5674 72.6516 27.0358 72.6516 32.973C72.6516 45.9409 62.1835 56.409 49.2156 56.409C36.2476 56.409 25.7795 45.9409 25.7795 32.973C25.7795 20.005 36.2476 9.38068 49.2156 9.38068Z" fill="#FF6600"/>
<path d="M60.1525 24.0673C62.0274 26.4109 63.2773 29.5357 63.2773 32.8167C63.2773 40.6287 57.0277 46.8783 49.2157 46.8783C41.4037 46.8783 35.1541 40.6287 35.1541 32.8167C35.1541 25.0047 41.4037 18.7551 49.2157 18.7551C52.4967 18.7551 55.6215 19.8488 57.9651 21.8799L53.4342 26.4109C52.3405 25.4734 50.7781 25.0047 49.2157 25.0047C44.8409 25.0047 41.4037 28.442 41.4037 32.8167C41.4037 37.1914 44.8409 40.6287 49.2157 40.6287C53.5904 40.6287 57.0277 37.1914 57.0277 32.8167C57.0277 31.2543 56.559 29.6919 55.7778 28.442L60.1525 24.0673Z" fill="#FFF8EF"/>
<path d="M53.903 59.3776V65.6272H50.7782H47.6534H44.5286V59.3776H53.903Z" fill="#FFF8EF"/>
<path d="M53.434 30.7856C53.7465 31.4106 53.9027 32.0355 53.9027 32.8167C53.9027 35.3166 51.8716 37.5039 49.2155 37.5039C46.7157 37.5039 44.5283 35.3166 44.5283 32.8167C44.5283 30.3169 46.7157 28.1295 49.2155 28.1295C49.9967 28.1295 50.6217 28.2858 51.2466 28.5982L48.1218 31.723L50.3092 33.9104L53.434 30.7856Z" fill="#FF6600"/>
<path d="M74.214 10.318L76.7139 7.81819H75.7764C74.9952 7.81819 74.214 7.19323 74.214 6.25579V5.31835L71.7142 7.81819L74.214 10.318ZM53.9028 32.8166C53.9028 32.0354 53.7465 31.4105 53.4341 30.7855L50.3093 33.9103L48.1219 31.7229L51.2467 28.5981C50.6217 28.2857 49.9968 28.1294 49.2156 28.1294C46.7157 28.1294 44.5284 30.3168 44.5284 32.8166C44.5284 35.3165 46.7157 37.5038 49.2156 37.5038C51.8717 37.5038 53.9028 35.3165 53.9028 32.8166ZM53.9028 65.6271V59.3775H44.5284V65.6271H47.6532H50.778H53.9028ZM77.3388 77.5013C69.683 71.8767 60.1524 68.7519 50.778 68.7519H47.6532C38.1225 68.7519 28.7481 71.8767 21.0923 77.5013V96.8751H32.0292V87.5007H35.154V96.8751H63.2772V89.0631V87.5007H66.402V89.0631V96.8751H77.3388V77.5013ZM66.402 32.8166C66.402 42.3473 58.7462 50.0031 49.2156 50.0031C39.6849 50.0031 32.0292 42.3473 32.0292 32.8166C32.0292 23.286 39.6849 15.6302 49.2156 15.6302C53.4341 15.6302 57.1838 17.1926 60.1524 19.6924L64.5271 15.3177C60.4649 11.568 55.1527 9.38059 49.2156 9.38059C36.2476 9.38059 25.7795 19.8487 25.7795 32.8166C25.7795 45.7846 36.2476 56.2527 49.2156 56.2527C62.1835 56.2527 72.6516 45.7846 72.6516 32.8166C72.6516 26.8795 70.4642 21.5673 66.8707 17.3488L62.496 21.8798C64.8396 24.8484 66.402 28.5981 66.402 32.8166ZM49.2156 6.25579C55.9339 6.25579 62.1835 8.75563 66.8707 12.9741L69.683 10.1618L68.4331 8.91187C67.8082 8.28691 67.8082 7.34947 68.4331 6.72451L74.6827 0.474899C75.1515 0.00617796 75.7764 -0.150062 76.4014 0.162418C77.0263 0.318658 77.3388 0.943619 77.3388 1.56858V4.69338H80.4636C81.0886 4.69338 81.7135 5.00587 81.8698 5.63083C82.1823 6.25579 82.026 6.88075 81.5573 7.34947L75.3077 13.5991C74.9952 13.9116 74.6827 14.0678 74.214 14.0678C73.7453 14.0678 73.4328 13.9116 73.1203 13.5991L71.8704 12.3492L69.0581 15.1615C73.2766 19.8487 75.7764 25.9421 75.7764 32.8166C75.7764 44.6909 67.8082 54.8465 57.0276 58.2838V66.0958C65.3083 67.1895 73.2766 70.4705 79.8387 75.4702C80.1511 75.7827 80.4636 76.2514 80.4636 76.7201V98.4375C80.4636 99.2187 79.6824 99.9999 78.9012 99.9999H66.402H63.2772H35.154H32.0292H19.5299C18.5925 99.9999 17.9675 99.2187 17.9675 98.4375V76.7201C17.9675 76.2514 18.1238 75.7827 18.5925 75.4702C25.1546 70.4705 33.1228 67.1895 41.4036 66.0958V58.2838C30.623 55.0027 22.6547 44.8471 22.6547 32.8166C22.6547 18.13 34.529 6.25579 49.2156 6.25579ZM63.2772 32.8166C63.2772 29.5356 62.1835 26.4108 60.1524 24.0672L55.6214 28.5981C56.5589 29.6918 57.0276 31.2542 57.0276 32.8166C57.0276 37.1914 53.5903 40.6286 49.2156 40.6286C44.8409 40.6286 41.4036 37.1914 41.4036 32.8166C41.4036 28.4419 44.8409 25.0046 49.2156 25.0046C50.778 25.0046 52.3404 25.4733 53.5903 26.2545L58.1213 21.7236C55.7777 19.8487 52.6529 18.5988 49.3718 18.5988C41.5598 18.5988 35.3102 24.8484 35.3102 32.6604C35.3102 40.4724 41.5598 46.722 49.3718 46.722C57.1838 46.722 63.2772 40.6286 63.2772 32.8166Z" fill="#42210B"/>
<path d="M64.6833 19.6925L62.496 21.8799C64.9958 24.8485 66.402 28.7545 66.402 32.8167C66.402 42.3474 58.7462 50.0032 49.2155 50.0032C39.6849 50.0032 32.0291 42.3474 32.0291 32.8167C32.0291 23.2861 39.6849 15.6303 49.2155 15.6303C53.434 15.6303 57.1838 17.1927 60.1523 19.5363L62.3397 17.3489C58.9024 14.3804 54.2152 12.5055 49.2155 12.5055C37.9662 12.5055 28.9043 21.5674 28.9043 32.8167C28.9043 44.066 37.9662 53.128 49.2155 53.128C60.4648 53.128 69.5268 44.066 69.5268 32.8167C69.5268 27.817 67.6519 23.1298 64.6833 19.6925Z" fill="#FF5400"/>
<path d="M57.0275 32.8167C57.0275 37.1914 53.5902 40.6287 49.2155 40.6287C44.8408 40.6287 41.4035 37.1914 41.4035 32.8167C41.4035 28.442 44.8408 25.0047 49.2155 25.0047C50.7779 25.0047 52.3403 25.4734 53.5902 26.2546L54.6839 25.1609C53.1215 24.0673 51.2466 23.4423 49.2155 23.4423C44.0596 23.4423 39.8411 27.6608 39.8411 32.8167C39.8411 37.9726 44.0596 42.1911 49.2155 42.1911C54.3714 42.1911 58.5899 37.9726 58.5899 32.8167C58.5899 30.7856 57.9649 28.9107 56.8713 27.3483L55.7776 28.442C56.5588 29.6919 57.0275 31.2543 57.0275 32.8167Z" fill="#D9CDC1"/>
<path d="M50.7779 68.752H47.6531C38.1225 68.752 28.7481 71.8768 21.0923 77.5014V96.8752L22.4984 80.0012C22.6547 78.7513 23.2796 77.8139 24.3733 77.1889C30.3105 73.9079 51.0904 64.0647 74.214 77.1889C75.3076 77.8139 75.9326 78.9076 75.9326 80.0012L77.3388 96.8752V77.5014C69.683 71.8768 60.1523 68.752 50.7779 68.752Z" fill="#FF7D00"/>
<path d="M44.5283 59.3776L50.153 60.4712C51.4029 60.7837 52.4966 61.7212 52.9653 62.9711L53.9027 65.6272V59.3776H44.5283Z" fill="#D9CDC1"/>
</g>
<defs>
<clipPath id="clip0_122_30">
<rect width="100" height="100" fill="white"/>
</clipPath>
</defs>
</svg>
