<svg width="100" height="100" viewBox="0 0 100 100" fill="none" xmlns="http://www.w3.org/2000/svg">
<path d="M49.9999 0C22.4999 0 0 22.3333 0 49.9999C0 77.6665 22.4999 99.9998 49.9999 99.9998C77.4999 99.9998 99.9998 77.4999 99.9998 49.9999C99.9998 22.4999 77.4999 0 49.9999 0ZM49.9999 96.6667C24.3333 96.6667 3.33335 75.6667 3.33335 50.0001C3.33335 24.3335 24.3333 3.33335 49.9999 3.33335C75.6665 3.33335 96.6667 24.3333 96.6667 49.9999C96.6667 75.6665 75.6665 96.6667 49.9999 96.6667Z" fill="#FFE500"/>
<path d="M49.9999 6.66672C26.1667 6.66672 6.66675 26.1666 6.66675 49.9999C6.66675 74 26.1667 93.3333 49.9999 93.3333C73.8332 93.3333 93.3333 74 93.3333 49.9999C93.3333 26.1666 73.8332 6.66672 49.9999 6.66672ZM89.9625 48.3333H83.3335V45C83.3335 44 82.6669 43.3334 81.6669 43.3334C80.6669 43.3334 80.0003 44 80.0003 45V48.3333H76.613C75.7794 34.9868 65.0134 24.2209 51.6669 23.3873V19.9999H55.0003C56.0003 19.9999 56.6668 19.3333 56.6668 18.3334C56.6668 17.3334 56.0003 16.6668 55.0003 16.6668H51.6669V10.0376C72.3483 10.8964 89.1035 27.6515 89.9625 48.3333ZM64.9999 43.3332C63.9999 43.3332 63.3334 43.9998 63.3334 44.9998V48.3331H60C59 48.3331 58.3334 48.9997 58.3334 49.9997C58.3334 50.9997 59 51.6663 60 51.6663H63.3334V54.9996C63.3334 55.9996 63.9999 56.6662 64.9999 56.6662C65.9999 56.6662 66.6665 55.9996 66.6665 54.9996V51.6663H73.2727C72.45 63.1788 63.1791 72.4498 51.6665 73.2724V66.6663H54.9999C55.9999 66.6663 56.6665 65.9997 56.6665 64.9997C56.6665 63.9997 55.9999 63.3331 54.9999 63.3331H51.6665V59.9998C51.6665 58.9998 50.9999 58.3332 49.9999 58.3332C49 58.3332 48.3334 58.9998 48.3334 59.9998V63.3331H45C44 63.3331 43.3334 63.9997 43.3334 64.9997C43.3334 65.9997 44 66.6663 45 66.6663H48.3334V73.2724C36.8208 72.4498 27.5499 63.1788 26.7272 51.6663H33.3334V54.9996C33.3334 55.9996 34 56.6662 35 56.6662C35.9999 56.6662 36.6665 55.9996 36.6665 54.9996V51.6663H39.9999C40.9999 51.6663 41.6665 50.9997 41.6665 49.9997C41.6665 48.9997 40.9999 48.3331 39.9999 48.3331H36.6665V44.9998C36.6665 43.9998 35.9999 43.3332 35 43.3332C34 43.3332 33.3334 43.9998 33.3334 44.9998V48.3331H26.7272C27.5499 36.8206 36.8208 27.5497 48.3334 26.727V33.3331H45C44 33.3331 43.3334 33.9997 43.3334 34.9997C43.3334 35.9997 44 36.6663 45 36.6663H48.3334V39.9997C48.3334 40.9996 49 41.6662 49.9999 41.6662C50.9999 41.6662 51.6665 40.9996 51.6665 39.9997V36.6663H54.9999C55.9999 36.6663 56.6665 35.9997 56.6665 34.9997C56.6665 33.9997 55.9999 33.3331 54.9999 33.3331H51.6665V26.7272C63.1791 27.5499 72.45 36.8208 73.2727 48.3333H66.6665V45C66.6667 44 65.9999 43.3332 64.9999 43.3332ZM48.3334 10.0376V16.6666H45C44 16.6666 43.3334 17.3332 43.3334 18.3332C43.3334 19.3331 44 19.9997 45 19.9997H48.3334V23.3871C34.9868 24.2207 24.2209 34.9866 23.3873 48.3331H20V44.9998C20 43.9998 19.3334 43.3332 18.3334 43.3332C17.3334 43.3332 16.6668 43.9998 16.6668 44.9998V48.3331H10.0376C10.8964 27.6515 27.6516 10.8964 48.3334 10.0376ZM10.0376 51.6667H16.6666V55C16.6666 56 17.3332 56.6666 18.3332 56.6666C19.3332 56.6666 19.9998 56 19.9998 55V51.6667H23.3871C24.2207 65.0132 34.9866 75.7791 48.3332 76.6127V80.0001H44.9998C43.9998 80.0001 43.3332 80.6667 43.3332 81.6667C43.3332 82.6667 43.9998 83.3332 44.9998 83.3332H48.3332V89.9622C27.6516 89.1034 10.8964 72.3483 10.0376 51.6667ZM51.6667 89.9624V83.3334H55.0001C56.0001 83.3334 56.6667 82.6669 56.6667 81.6669C56.6667 80.6669 56.0001 80.0003 55.0001 80.0003H51.6667V76.6129C65.0132 75.7793 75.7792 65.0134 76.6128 51.6669H80.0001V55.0002C80.0001 56.0002 80.6667 56.6668 81.6667 56.6668C82.6667 56.6668 83.3333 56.0002 83.3333 55.0002V51.6669H89.9623C89.1035 72.3483 72.3483 89.1034 51.6667 89.9624Z" fill="#FFE500"/>
<path d="M53.3333 48.3333H51.6667V46.6668C51.6667 45.6668 51.0001 45.0002 50.0001 45.0002C49.0001 45.0002 48.3335 45.6668 48.3335 46.6668V48.3333H46.6669C45.667 48.3333 45.0004 48.9999 45.0004 49.9999C45.0004 50.9999 45.667 51.6665 46.6669 51.6665H48.3335V53.3331C48.3335 54.3331 49.0001 54.9996 50.0001 54.9996C51.0001 54.9996 51.6667 54.3331 51.6667 53.3331V51.6665H53.3333C54.3332 51.6665 54.9998 50.9999 54.9998 49.9999C54.9998 48.9999 54.3332 48.3333 53.3333 48.3333Z" fill="#FFE500"/>
</svg>
