<svg width="100" height="100" viewBox="0 0 100 100" fill="none" xmlns="http://www.w3.org/2000/svg">
<path d="M66.268 74.7239V90.1531L73.6604 93.2299V70.6805C71.3383 72.2731 68.8617 73.6277 66.268 74.7239ZM26.3396 70.6805V93.076L33.732 89.9992V74.7239C31.1383 73.6278 28.6617 72.2731 26.3396 70.6805ZM49.9999 78.0063C46.5092 78.0082 43.0319 77.5738 39.649 76.7131V100L49.9999 95.692L60.3509 99.9998V76.7131C56.9679 77.5737 53.4906 78.0081 49.9999 78.0063ZM49.9999 0C30.1249 0 13.9554 16.1695 13.9554 36.0447C13.9554 55.9198 30.1249 72.0891 49.9999 72.0891C69.8749 72.0891 86.0446 55.9196 86.0446 36.0445C86.0446 16.1693 69.8751 0 49.9999 0ZM49.9999 64.4725C34.2435 64.4725 21.4246 51.6536 21.4246 35.8972C21.4246 20.1406 34.2435 7.32167 49.9999 7.32167C65.7563 7.32167 78.5752 20.1406 78.5752 35.8972C78.5752 51.6538 65.7565 64.4725 49.9999 64.4725ZM49.9999 13.2386C37.5062 13.2386 27.3416 23.4031 27.3416 35.8972C27.3416 48.3913 37.5062 58.5554 49.9999 58.5554C62.4936 58.5554 72.6583 48.3909 72.6583 35.897C72.6583 23.4031 62.4938 13.2386 49.9999 13.2386ZM59.3126 49.121L49.9999 44.2251L40.6874 49.121L42.4659 38.7515L34.932 31.4078L45.3439 29.8947L49.9999 20.4599L54.6561 29.8947L65.068 31.4078L57.5341 38.7515L59.3126 49.121Z" fill="#FFE500"/>
</svg>
