<svg width="50" height="50" viewBox="0 0 50 50" fill="none" xmlns="http://www.w3.org/2000/svg">
<path d="M44.3615 6.07105C38.2095 8.61905 11.8305 19.5455 4.542 22.5235C-0.346002 24.431 2.5155 26.2195 2.5155 26.2195C2.5155 26.2195 6.688 27.65 10.265 28.723C13.8415 29.796 15.749 28.604 15.749 28.604L32.559 17.278C38.52 13.2245 37.0895 16.5625 35.6585 17.9935C32.559 21.0935 27.4325 25.981 23.1405 29.9155C21.233 31.5845 22.1865 33.015 23.0215 33.7305C26.121 36.3535 34.586 41.7185 35.0625 42.076C37.581 43.859 42.535 46.4255 43.2885 41.003L46.269 22.2855C47.223 15.967 48.1765 10.125 48.2955 8.45605C48.6535 4.40205 44.3615 6.07105 44.3615 6.07105Z" fill="#00AEF3"/>
</svg>
